<?xml version="1.0" ?>
<!-- Uploaded to: SVG Repo, www.svgrepo.com, Generator: SVG Repo Mixer Tools -->
<svg width="800px" height="800px" viewBox="0 0 512 512" version="1.1" xml:space="preserve" xmlns="http://www.w3.org/2000/svg" xmlns:xlink="http://www.w3.org/1999/xlink">
<style type="text/css">
	.st0{display:none;}
	.st1{fill:#474747;}
</style>
<g class="st0" id="Layer_1"/>
<g id="Layer_2">
<g>
<path class="st1" d="M318.19,412.93c1.3-1.31,2.05-3.11,2.05-4.95c0-1.85-0.75-3.65-2.05-4.95c-1.3-1.31-3.11-2.05-4.95-2.05    c-1.84,0-3.65,0.74-4.95,2.05c-1.3,1.3-2.05,3.1-2.05,4.95c0,1.84,0.75,3.64,2.05,4.95c1.3,1.3,3.11,2.05,4.95,2.05    C315.08,414.98,316.89,414.23,318.19,412.93z"/>
<path class="st1" d="M105.45,468.86h103.03c3.87,0,7-3.13,7-7v-11.25c0-9.04,6.76-16.77,15.73-17.99    c12.2-1.66,36.63-5.44,63.2-12.15c3.75-0.95,6.02-4.75,5.07-8.5c-0.95-3.75-4.75-6.02-8.5-5.07    c-25.91,6.54-49.75,10.23-61.66,11.85c-15.88,2.16-27.85,15.86-27.85,31.86v4.25h-88.6c0.94-12.64,2.84-25.22,5.66-37.47    c3.4-14.75,8.15-29.19,14.12-42.91c21.01-48.26,35.52-60.87,42.3-64.1c5.47-2.6,13.07-5.11,21.97-7.26    c1.32-0.32,2.67-0.63,4.03-0.92c17.99-3.95,39.23-6.14,56.45-5.76c20.59,0.45,29.48,4.26,32.09,6.87    c0.33,0.33,0.57,0.65,0.71,0.94c-0.44,0.73-2.89,3.77-14.27,7.96c-0.48,0.18-0.97,0.36-1.48,0.54    c-9.95,3.52-22.21,6.47-33.03,9.08c-21.46,5.18-28.69,6.92-30.21,13.52c-6.01,26.05,4.23,33.65,10.87,35.85    c0.23,0.08,0.48,0.15,0.75,0.22c0.09,0.02,0.19,0.05,0.28,0.07c0.19,0.05,0.38,0.1,0.59,0.14c0.12,0.03,0.25,0.05,0.37,0.08    c0.2,0.04,0.4,0.08,0.61,0.12c0.14,0.03,0.29,0.05,0.44,0.08c0.21,0.04,0.42,0.07,0.64,0.11c0.16,0.02,0.33,0.05,0.5,0.07    c0.23,0.03,0.46,0.06,0.7,0.1c0.18,0.02,0.36,0.05,0.54,0.07c0.25,0.03,0.5,0.06,0.75,0.09c0.19,0.02,0.38,0.04,0.58,0.06    c0.27,0.03,0.54,0.05,0.82,0.08c0.2,0.02,0.4,0.04,0.61,0.05c0.29,0.02,0.58,0.05,0.88,0.07c0.21,0.02,0.43,0.03,0.65,0.05    c0.31,0.02,0.63,0.04,0.95,0.06c0.22,0.01,0.43,0.03,0.66,0.04c0.34,0.02,0.7,0.04,1.06,0.06c0.21,0.01,0.42,0.02,0.63,0.03    c0.42,0.02,0.85,0.04,1.29,0.05c0.16,0.01,0.31,0.01,0.47,0.02c0.61,0.02,1.22,0.04,1.85,0.06c0.06,0,0.11,0,0.17,0    c0.57,0.01,1.15,0.03,1.74,0.03c0.22,0,0.45,0.01,0.67,0.01c0.44,0.01,0.87,0.01,1.32,0.01c0.26,0,0.53,0,0.79,0    c0.32,0,0.64,0,0.96,0c0.09,0,0.18,0,0.27,0c0.44,0,0.88,0,1.33-0.01c0.32,0,0.63,0,0.95-0.01c0.48,0,0.98-0.01,1.47-0.02    c0.29,0,0.58-0.01,0.87-0.01c0.66-0.01,1.34-0.03,2.02-0.04c0.13,0,0.25-0.01,0.38-0.01c0.81-0.02,1.63-0.05,2.45-0.07    c0.26-0.01,0.53-0.02,0.79-0.03c0.57-0.02,1.14-0.04,1.72-0.06c0.33-0.01,0.66-0.03,0.99-0.04c0.52-0.02,1.04-0.05,1.57-0.07    c0.36-0.02,0.72-0.04,1.08-0.06c0.5-0.03,1.01-0.05,1.51-0.08c0.37-0.02,0.75-0.04,1.13-0.07c0.5-0.03,1.01-0.06,1.51-0.09    c0.39-0.02,0.77-0.05,1.16-0.08c0.5-0.03,1-0.07,1.5-0.1c0.39-0.03,0.79-0.06,1.18-0.09c0.51-0.04,1.02-0.08,1.52-0.12    c0.39-0.03,0.79-0.06,1.18-0.09c0.51-0.04,1.02-0.09,1.53-0.13c0.4-0.03,0.8-0.07,1.2-0.1c0.51-0.05,1.03-0.09,1.55-0.14    c0.4-0.04,0.8-0.07,1.19-0.11c0.53-0.05,1.06-0.11,1.59-0.16c0.38-0.04,0.77-0.08,1.15-0.12c0.56-0.06,1.11-0.12,1.67-0.18    c0.36-0.04,0.72-0.08,1.08-0.12c0.62-0.07,1.24-0.15,1.86-0.22c0.3-0.04,0.59-0.07,0.89-0.11c0.92-0.11,1.83-0.23,2.75-0.35    c27.08-3.58,62.24-11.9,75.97-31.24c1.77-2.5,3.41-5.16,4.94-7.94c1.44-2.63,2.78-5.37,4.02-8.18c0.23-0.51,0.45-1.02,0.67-1.54    c0.42-0.98,0.83-1.96,1.23-2.95c3.54-8.77,6.3-17.99,8.65-26.59c0,0,0-0.01,0-0.01c1.13-4.13,2.2-8.22,3.23-12.18    c2.78-10.67,5.41-20.75,8.38-27.71c1.62-3.81,3.06-5.94,4.1-7.03c1.93,7.04,1.5,28.54-5.36,62.34    c-7.31,36.01-16.68,60.35-21.8,64.97c-8.99,8.11-22.88,15.76-41.28,22.74c-3.62,1.37-5.43,5.41-4.06,9.03    c1.37,3.62,5.41,5.43,9.03,4.06c20.04-7.6,35.41-16.16,45.7-25.44c12.41-11.2,22.59-55.71,25.41-69.08    c2.83-13.4,11.54-58.42,4.84-75.16c-3.14-7.84-8.98-8.54-11.35-8.46c-15.23,0.42-20.49,20.63-27.15,46.21    c-1.02,3.91-2.07,7.96-3.18,12.01c0,0.01,0,0.01-0.01,0.02c-2.76,10.09-6.09,21.07-10.56,30.7c-2.03,4.38-4.3,8.47-6.86,12.08    c-8.41,11.85-31.9,20.88-66.13,25.43c-29.57,3.93-55.31,2.96-59.31,1.69c-3.19-1.06-3.99-7.63-2.17-17    c3.79-1.48,12.87-3.67,20.37-5.48c30.41-7.34,52.38-13.43,58.13-25.14c1.85-3.77,1.92-7.82,0.18-11.71    c-0.16-0.36-0.33-0.71-0.52-1.05c-0.06-0.11-0.13-0.22-0.2-0.34c-0.13-0.23-0.26-0.45-0.4-0.67c-0.08-0.13-0.17-0.26-0.26-0.38    c-0.13-0.2-0.27-0.4-0.41-0.59c-0.1-0.13-0.2-0.26-0.3-0.39c-0.14-0.18-0.29-0.36-0.44-0.54c-0.11-0.13-0.23-0.26-0.34-0.39    c-0.15-0.17-0.31-0.34-0.47-0.51c-0.12-0.13-0.25-0.25-0.37-0.37c-0.17-0.16-0.34-0.32-0.51-0.48c-0.13-0.12-0.27-0.24-0.4-0.36    c-0.18-0.16-0.37-0.31-0.55-0.46c-0.14-0.11-0.28-0.23-0.42-0.34c-0.2-0.15-0.41-0.3-0.61-0.45c-0.14-0.1-0.28-0.21-0.43-0.31    c-0.23-0.16-0.46-0.31-0.7-0.46c-0.13-0.09-0.26-0.17-0.4-0.26c-0.33-0.21-0.68-0.41-1.02-0.61c-0.09-0.05-0.18-0.1-0.26-0.15    c-0.35-0.19-0.71-0.39-1.08-0.57c-0.16-0.08-0.33-0.16-0.49-0.24c-0.26-0.13-0.52-0.25-0.78-0.37c-0.19-0.09-0.39-0.17-0.58-0.26    c-0.25-0.11-0.49-0.22-0.74-0.32c-0.21-0.09-0.42-0.17-0.63-0.25c-0.25-0.1-0.49-0.2-0.75-0.29c-0.22-0.08-0.45-0.16-0.67-0.25    c-0.25-0.09-0.5-0.18-0.75-0.27c-0.23-0.08-0.47-0.16-0.7-0.24c-0.25-0.08-0.51-0.16-0.77-0.24c-0.24-0.08-0.49-0.15-0.73-0.22    c-0.26-0.08-0.52-0.15-0.79-0.22c-0.25-0.07-0.5-0.14-0.76-0.21c-0.27-0.07-0.54-0.14-0.81-0.21c-0.26-0.06-0.51-0.13-0.77-0.19    c-0.28-0.07-0.57-0.13-0.85-0.2c-0.26-0.06-0.52-0.12-0.78-0.18c-0.3-0.07-0.61-0.13-0.91-0.19c-0.5-0.1-1.01-0.2-1.52-0.29    c-0.29-0.05-0.57-0.11-0.86-0.16c-0.3-0.05-0.61-0.1-0.92-0.15c-0.27-0.04-0.54-0.09-0.81-0.13c-0.31-0.05-0.63-0.09-0.95-0.14    c-0.27-0.04-0.54-0.08-0.81-0.12c-0.32-0.04-0.65-0.09-0.97-0.13c-0.27-0.03-0.55-0.07-0.82-0.1c-0.33-0.04-0.66-0.08-1-0.11    c-0.27-0.03-0.55-0.06-0.82-0.09c-0.34-0.04-0.67-0.07-1.01-0.1c-0.28-0.03-0.55-0.05-0.83-0.08c-0.35-0.03-0.69-0.06-1.04-0.09    c-0.27-0.02-0.54-0.04-0.81-0.06c-0.36-0.03-0.72-0.05-1.08-0.08c-0.26-0.02-0.52-0.03-0.78-0.05c-0.38-0.02-0.75-0.05-1.13-0.07    c-0.23-0.01-0.46-0.02-0.69-0.03c-0.41-0.02-0.83-0.04-1.24-0.06c-0.09,0-0.19-0.01-0.28-0.01c-1.1-0.04-2.22-0.08-3.34-0.1    c-0.05,0-0.1,0-0.15,0c-0.44-0.01-0.89-0.01-1.33-0.02c-0.21,0-0.43-0.01-0.65-0.01c-0.42,0-0.85,0-1.27-0.01    c-0.24,0-0.47,0-0.71,0c-0.42,0-0.83,0-1.25,0.01c-0.25,0-0.5,0-0.75,0.01c-0.42,0-0.83,0.01-1.25,0.02    c-0.25,0-0.5,0.01-0.75,0.01c-0.42,0.01-0.83,0.02-1.25,0.03c-0.25,0.01-0.51,0.01-0.76,0.02c-0.42,0.01-0.84,0.03-1.26,0.04    c-0.24,0.01-0.48,0.02-0.73,0.03c-0.43,0.02-0.87,0.03-1.3,0.05c-0.21,0.01-0.43,0.02-0.65,0.03c-0.46,0.02-0.92,0.04-1.38,0.07    c-0.17,0.01-0.34,0.02-0.51,0.03c-2.31,0.12-4.62,0.28-6.92,0.46c-0.15,0.01-0.3,0.02-0.45,0.04c-0.47,0.04-0.93,0.08-1.4,0.12    c-0.2,0.02-0.41,0.03-0.61,0.05c-0.45,0.04-0.89,0.08-1.34,0.12c-0.22,0.02-0.44,0.04-0.66,0.06c-0.44,0.04-0.87,0.08-1.3,0.13    c-0.23,0.02-0.45,0.05-0.68,0.07c-0.42,0.04-0.84,0.09-1.26,0.13c-0.24,0.03-0.47,0.05-0.71,0.08c-0.42,0.05-0.83,0.09-1.24,0.14    c-0.23,0.03-0.47,0.05-0.7,0.08c-0.42,0.05-0.83,0.1-1.25,0.15c-0.21,0.03-0.42,0.05-0.63,0.08c-0.44,0.05-0.88,0.11-1.31,0.16    c-0.15,0.02-0.31,0.04-0.46,0.06c-2.17,0.28-4.3,0.57-6.37,0.88c-0.17,0.02-0.33,0.05-0.5,0.07c-0.4,0.06-0.79,0.12-1.18,0.18    c-0.22,0.03-0.43,0.07-0.65,0.1c-0.37,0.06-0.73,0.12-1.09,0.17c-0.24,0.04-0.48,0.08-0.71,0.12c-0.35,0.06-0.69,0.11-1.03,0.17    c-0.24,0.04-0.49,0.08-0.73,0.12c-0.34,0.06-0.67,0.11-1,0.17c-0.25,0.04-0.49,0.09-0.74,0.13c-0.32,0.06-0.64,0.11-0.96,0.17    c-0.24,0.04-0.48,0.09-0.73,0.13c-0.31,0.06-0.63,0.12-0.94,0.17c-0.25,0.05-0.49,0.09-0.74,0.14c-0.29,0.06-0.59,0.11-0.88,0.17    c-0.04,0.01-0.08,0.02-0.12,0.02c0.32-9.45,0.71-18.31,4.12-23.75c0.05-0.09,0.11-0.18,0.16-0.27    c7.83-13.86,30.47-19.23,51.82-22.59c2.8,0.28,4.86,0.26,6.69,0.23c3.03,0.7,6.15,1.46,9.29,2.26c1.88,0.65,3.63,1.24,5.29,1.8    l1.68,0.56c0.01,0,0.03,0.01,0.04,0.01c0.3,0.1,0.6,0.18,0.91,0.23c0.02,0,0.04,0.01,0.06,0.01c8.09,1.44,16.47,1.42,24.55,1.4    c12.5-0.03,24.34-0.05,32.89,5.29c0.14,0.08,0.27,0.16,0.42,0.24c5.47,2.92,9.38,8.71,12.78,14.52c1.95,3.34,6.24,4.46,9.58,2.51    c3.34-1.95,4.46-6.24,2.51-9.58c-4.19-7.17-9.61-15.1-18.06-19.69c-11.93-7.35-26.27-7.33-40.14-7.3    c-5.67,0.01-11.11,0.02-16.29-0.44v-6.67c0-0.92,0.01-2.05,0.02-3.22c0.02-2.06,0.03-4.17,0.01-5.78    c0.99-7.98,1.65-16.22,2.01-24.6c3.18,0.68,6.46,1.03,9.78,1.03c10.47,0,21.37-3.38,31.02-9.94    c15.94-10.84,25.04-28.03,23.75-44.87c-0.19-2.48-1.68-4.67-3.91-5.76c-15.18-7.4-34.52-5.25-50.46,5.59    c-4.18,2.85-7.89,6.13-11.07,9.73c-0.47-6.1-1.08-12.37-1.83-18.83c11.2-10.8,16.44-27.8,13.73-45.39    c-2.94-19.05-14.55-34.66-30.31-40.73c-2.32-0.89-4.94-0.49-6.88,1.06c-13.21,10.53-19.58,28.91-16.64,47.97    c2.67,17.34,12.57,31.82,26.21,38.84c0.56,4.84,1.04,9.57,1.44,14.2c-2.52-2.49-5.32-4.8-8.36-6.87    c-15.94-10.84-35.28-12.99-50.47-5.59c-2.23,1.09-3.72,3.28-3.91,5.76c-1.29,16.84,7.81,34.03,23.75,44.87    c9.65,6.56,20.55,9.94,31.02,9.94c3.1,0,6.17-0.31,9.15-0.91c-0.35,7.92-1,15.7-1.94,23.23c-0.04,0.34-0.06,0.68-0.05,1.02    c0.03,1.44,0.01,3.81,0,5.89c-0.01,1.21-0.02,2.38-0.02,3.33v3.21c-3.11-0.78-6.2-1.54-9.2-2.22c-0.54-0.12-1.08-0.18-1.65-0.17    l-0.65,0.01c-1.89,0.03-3.53,0.06-6.02-0.24c-0.63-0.07-1.27-0.06-1.9,0.03c-26.12,4.05-51.79,10.44-62.69,29.54    c-5.42,8.77-5.79,19.75-6.18,31.37c-0.03,0.96-0.07,1.95-0.11,2.93c-7.71,2.08-14.29,4.4-19.58,6.91    c-15.19,7.22-31.72,31.16-49.13,71.15c-6.32,14.51-11.34,29.77-14.93,45.36c-3.55,15.44-5.72,31.35-6.44,47.29    c-0.09,1.91,0.61,3.77,1.93,5.15C101.71,468.08,103.53,468.86,105.45,468.86z M311,150.39c10.24-6.96,22.55-9.19,32.54-6.12    c-0.82,10.41-7.42,21.05-17.65,28.01c-10.23,6.96-22.54,9.19-32.53,6.12C294.17,167.99,300.76,157.35,311,150.39z M263.96,90.51    c-1.89-12.24,1.39-24.32,8.45-32.01c9.04,5.21,15.81,15.74,17.7,27.98c1.89,12.22-1.39,24.3-8.45,32    C272.62,113.27,265.84,102.73,263.96,90.51z M246.65,172.28c-10.23-6.96-16.83-17.6-17.65-28.01c9.98-3.07,22.3-0.84,32.54,6.12    c10.23,6.96,16.83,17.6,17.64,28.01C269.2,181.46,256.88,179.24,246.65,172.28z"/>
</g>
</g>
</svg>