<?xml version="1.0" ?>
<!-- Uploaded to: SVG Repo, www.svgrepo.com, Generator: SVG Repo Mixer Tools -->
<svg width="800px" height="800px" viewBox="0 0 512 512" version="1.1" xml:space="preserve" xmlns="http://www.w3.org/2000/svg" xmlns:xlink="http://www.w3.org/1999/xlink">
<style type="text/css">
	.st0{display:none;}
	.st1{fill:#474747;}
</style>
<g class="st0" id="Layer_1"/>
<g id="Layer_2">
<g>
<path class="st1" d="M217.64,465.8l1.79-2.3c0.31-0.4,0.58-0.83,0.79-1.29c0.38-0.81,9.46-20.09,12.85-47.15    c4.54-36.18-3.4-69.03-22.97-94.99c-14.81-19.65-22.28-25.3-29.6-22.36c-8.84,3.55-7.43,15.45-5.11,35.17    c1.61,13.68,3.81,32.28,0.2,39.49c-1.8-0.79-5.9-3.65-12.09-11.32c-22.33-27.63-47.05-83.67-44.06-109.68    c2.63-22.91,11.59-37.04,18.14-47.36c5.53-8.72,10.76-16.95,4.39-24.51c-1.75-2.08-5.9-5.27-13.97-3.21    c-17.94,4.57-49.93,32.85-55.67,61.07c-12.49,61.34,9.6,117.73,27.35,163.04c4.07,10.39,7.92,20.21,11.07,29.37    c1.26,3.66,5.24,5.6,8.9,4.34c3.66-1.26,5.6-5.24,4.34-8.9c-3.25-9.44-7.15-19.39-11.27-29.92    c-17.08-43.6-38.33-97.85-26.66-155.14c2.27-11.15,10.57-24.06,22.77-35.44c8.58-8,16.17-12.46,20.63-14.22    c-1.02,1.83-2.44,4.06-3.68,6.02c-6.86,10.81-17.23,27.16-20.22,53.26c-3.07,26.75,16.05,67.64,21.98,79.54    c12.05,24.17,29.94,51.69,44.02,56.47c6.44,2.19,12.33,0.08,15.76-5.63c6.5-10.84,4.22-30.19,2.02-48.91    c-0.61-5.2-1.37-11.59-1.6-16.35c2.47,2.57,6.07,6.76,11.23,13.6c17.5,23.21,24.33,51.61,20.31,84.39    c-2.52,20.55-8.76,36.54-10.91,41.61h-82.88c-3.87,0-7,3.13-7,7s3.13,7,7,7h86.67C214.27,468.5,216.31,467.5,217.64,465.8z"/>
<path class="st1" d="M291.78,462.21c0.22,0.46,0.48,0.89,0.79,1.29l1.79,2.3c1.33,1.71,3.37,2.7,5.53,2.7h86.67    c3.67,0,6.72-2.84,6.98-6.5c1.19-16.65,9.35-37.48,18.79-61.6c17.75-45.31,39.84-101.7,27.35-163.04    c-5.75-28.21-37.73-56.49-55.67-61.07c-8.07-2.06-12.22,1.13-13.97,3.21c-6.37,7.56-1.14,15.8,4.39,24.51    c6.55,10.32,15.51,24.44,18.14,47.36c2.68,23.42-16.63,69.46-36.07,98.69c-2.14,3.22-1.27,7.56,1.95,9.71    c3.22,2.14,7.56,1.27,9.71-1.95c17.96-27,41.72-78.37,38.32-108.03c-2.99-26.11-13.36-42.45-20.22-53.26    c-1.24-1.96-2.66-4.19-3.68-6.02c4.46,1.76,12.05,6.22,20.63,14.22c12.2,11.38,20.5,24.29,22.77,35.44    c11.67,57.29-9.59,111.55-26.66,155.14c-8.75,22.33-16.43,41.96-19,59.21h-76.62c-4.73-11.14-29.06-74.97,9.4-126    c5.15-6.84,8.76-11.03,11.23-13.6c-0.24,4.75-0.99,11.15-1.6,16.35c-2.21,18.72-4.49,38.07,2.02,48.91    c2.71,4.52,6.43,5.94,9.06,6.33c5.15,0.77,10.68-1.61,16.92-7.25c2.87-2.59,3.09-7.02,0.49-9.89s-7.02-3.09-9.89-0.49    c-2.44,2.21-4.04,3.12-4.9,3.5c-3.6-7.22-1.41-25.8,0.21-39.48c2.33-19.72,3.73-31.63-5.11-35.17    c-7.32-2.93-14.78,2.71-29.6,22.36c-19.57,25.96-27.51,58.81-22.97,94.99C282.32,442.12,291.4,461.4,291.78,462.21z"/>
<path class="st1" d="M278.75,266.51c-3.45,1.75-4.82,5.96-3.07,9.41c1.75,3.45,5.97,4.82,9.41,3.07    c22.39-11.37,50-33.92,54.44-76.75c0.23-2.22-0.61-4.41-2.26-5.91c-1.65-1.5-3.92-2.12-6.1-1.67    c-0.77,0.16-19.07,3.99-38.19,16.41c-12.71,8.26-22.77,18.38-29.98,30.03v-40.37c0.72-12.68,5.44-19.15,11.97-28.1    c7.24-9.92,16.26-22.27,21.67-46.4c0.85-3.77-1.52-7.52-5.3-8.36c-3.77-0.84-7.52,1.52-8.36,5.3    c-4.78,21.29-12.5,31.87-19.32,41.21c-2.71,3.72-5.37,7.35-7.66,11.39c-2.29-4.03-4.95-7.67-7.66-11.39    c-7.06-9.68-15.07-20.65-19.8-43.45c-7.09-34.14,17.91-55.37,27.45-62.08c5.74,4.08,17.27,13.6,23.86,28.03    c1.61,3.52,5.76,5.07,9.27,3.46c3.52-1.61,5.07-5.76,3.46-9.27c-10.83-23.73-32.2-36.14-33.1-36.65c-2.15-1.23-4.79-1.23-6.94,0    c-0.5,0.28-12.27,7.09-22.77,20.09c-14.17,17.55-19.34,38.05-14.93,59.27c5.35,25.76,14.69,38.57,22.2,48.86    c6.53,8.94,11.25,15.42,11.97,28.1v38.81c-7.13-10.99-16.85-20.58-28.99-28.47c-19.12-12.42-37.42-16.25-38.19-16.41    c-2.18-0.44-4.45,0.18-6.1,1.67c-1.65,1.5-2.49,3.69-2.26,5.91c3.06,29.56,18.12,53.92,43.54,70.46    c12.78,8.32,25.1,12.67,32.01,14.66v63.76c0,3.87,3.13,7,7,7s7-3.13,7-7v-65.62c0.53-0.89,0.87-1.91,0.96-3.01    c2.03-24.98,14.24-44.98,36.27-59.44c8.67-5.69,17.28-9.4,23.63-11.66C317.04,241.18,296.08,257.7,278.75,266.51z M224.23,260.71    c-18.69-12.29-30.47-28.84-35.12-49.31c17.02,6.1,50.35,22.7,58.41,60.78C241.3,269.99,232.83,266.36,224.23,260.71z"/>
<path class="st1" d="M285.69,100.26c-0.25,0.38-0.46,0.79-0.64,1.21s-0.31,0.86-0.4,1.31s-0.14,0.91-0.14,1.36    c0,0.46,0.05,0.92,0.14,1.37c0.09,0.45,0.22,0.89,0.4,1.31c0.18,0.43,0.39,0.83,0.64,1.21c0.26,0.38,0.55,0.74,0.88,1.06    c0.32,0.33,0.68,0.62,1.06,0.88c0.38,0.25,0.78,0.46,1.21,0.64c0.42,0.17,0.86,0.31,1.31,0.4s0.91,0.14,1.37,0.14    c0.45,0,0.91-0.05,1.36-0.14s0.89-0.23,1.31-0.4c0.42-0.18,0.83-0.39,1.21-0.64c0.38-0.26,0.74-0.55,1.06-0.88    c1.31-1.3,2.05-3.1,2.05-4.95c0-1.84-0.74-3.64-2.05-4.95c-1.3-1.3-3.1-2.04-4.94-2.04c-1.85,0-3.65,0.74-4.95,2.04    C286.24,99.52,285.95,99.88,285.69,100.26z"/>
</g>
</g>
</svg>